<mxfile host="app.diagrams.net" modified="2021-02-11T22:54:40.476Z" agent="5.0 (Windows NT 10.0; Win64; x64) AppleWebKit/537.36 (KHTML, like Gecko) Chrome/88.0.4324.150 Safari/537.36" etag="k38cesFFjIJk0qbVee1h" version="14.3.1" type="github">
  <diagram id="mvza_citXo7myEzBr_xA" name="Page-1">
    <mxGraphModel dx="1102" dy="614" grid="1" gridSize="10" guides="1" tooltips="1" connect="1" arrows="1" fold="1" page="1" pageScale="1" pageWidth="850" pageHeight="1100" math="0" shadow="0">
      <root>
        <mxCell id="0" />
        <mxCell id="1" parent="0" />
        <mxCell id="nIRvDoLWJM8dcYmagpsT-1" value="input&lt;br&gt;c or f" style="shape=folder;fontStyle=1;tabWidth=80;tabHeight=30;tabPosition=left;html=1;boundedLbl=1;" vertex="1" parent="1">
          <mxGeometry x="20" y="100" width="150" height="80" as="geometry" />
        </mxCell>
        <mxCell id="nIRvDoLWJM8dcYmagpsT-2" value="f" style="shape=folder;fontStyle=1;tabWidth=80;tabHeight=30;tabPosition=left;html=1;boundedLbl=1;" vertex="1" parent="1">
          <mxGeometry x="300" y="100" width="150" height="80" as="geometry" />
        </mxCell>
        <mxCell id="nIRvDoLWJM8dcYmagpsT-3" value="c" style="shape=folder;fontStyle=1;tabWidth=80;tabHeight=30;tabPosition=left;html=1;boundedLbl=1;" vertex="1" parent="1">
          <mxGeometry x="200" y="310" width="150" height="80" as="geometry" />
        </mxCell>
        <mxCell id="nIRvDoLWJM8dcYmagpsT-4" value="f to c" style="shape=folder;fontStyle=1;tabWidth=80;tabHeight=30;tabPosition=left;html=1;boundedLbl=1;" vertex="1" parent="1">
          <mxGeometry x="460" y="300" width="150" height="80" as="geometry" />
        </mxCell>
        <mxCell id="nIRvDoLWJM8dcYmagpsT-5" value="result" style="shape=folder;fontStyle=1;tabWidth=80;tabHeight=30;tabPosition=left;html=1;boundedLbl=1;" vertex="1" parent="1">
          <mxGeometry x="660" y="450" width="150" height="80" as="geometry" />
        </mxCell>
        <mxCell id="nIRvDoLWJM8dcYmagpsT-6" value="c to f" style="shape=folder;fontStyle=1;tabWidth=80;tabHeight=30;tabPosition=left;html=1;boundedLbl=1;" vertex="1" parent="1">
          <mxGeometry x="560" y="100" width="150" height="80" as="geometry" />
        </mxCell>
        <mxCell id="nIRvDoLWJM8dcYmagpsT-8" value="" style="endArrow=none;dashed=1;html=1;dashPattern=1 3;strokeWidth=2;exitX=0;exitY=0;exitDx=150;exitDy=55;exitPerimeter=0;entryX=0;entryY=0;entryDx=0;entryDy=55;entryPerimeter=0;" edge="1" parent="1" source="nIRvDoLWJM8dcYmagpsT-1" target="nIRvDoLWJM8dcYmagpsT-2">
          <mxGeometry width="50" height="50" relative="1" as="geometry">
            <mxPoint x="220" y="180" as="sourcePoint" />
            <mxPoint x="290" y="155" as="targetPoint" />
          </mxGeometry>
        </mxCell>
        <mxCell id="nIRvDoLWJM8dcYmagpsT-9" value="" style="endArrow=none;dashed=1;html=1;dashPattern=1 3;strokeWidth=2;exitX=0;exitY=0;exitDx=150;exitDy=55;exitPerimeter=0;entryX=0;entryY=0;entryDx=0;entryDy=55;entryPerimeter=0;" edge="1" parent="1" source="nIRvDoLWJM8dcYmagpsT-2" target="nIRvDoLWJM8dcYmagpsT-6">
          <mxGeometry width="50" height="50" relative="1" as="geometry">
            <mxPoint x="490" y="180" as="sourcePoint" />
            <mxPoint x="540" y="130" as="targetPoint" />
          </mxGeometry>
        </mxCell>
        <mxCell id="nIRvDoLWJM8dcYmagpsT-10" value="" style="endArrow=none;dashed=1;html=1;dashPattern=1 3;strokeWidth=2;entryX=0.86;entryY=0.313;entryDx=0;entryDy=0;entryPerimeter=0;" edge="1" parent="1" target="nIRvDoLWJM8dcYmagpsT-5">
          <mxGeometry width="50" height="50" relative="1" as="geometry">
            <mxPoint x="710" y="160" as="sourcePoint" />
            <mxPoint x="790" y="160" as="targetPoint" />
            <Array as="points">
              <mxPoint x="800" y="160" />
            </Array>
          </mxGeometry>
        </mxCell>
        <mxCell id="nIRvDoLWJM8dcYmagpsT-11" value="" style="endArrow=none;dashed=1;html=1;dashPattern=1 3;strokeWidth=2;exitX=0.333;exitY=0;exitDx=0;exitDy=0;exitPerimeter=0;" edge="1" parent="1" source="nIRvDoLWJM8dcYmagpsT-3">
          <mxGeometry width="50" height="50" relative="1" as="geometry">
            <mxPoint x="200" y="200" as="sourcePoint" />
            <mxPoint x="250" y="150" as="targetPoint" />
          </mxGeometry>
        </mxCell>
        <mxCell id="nIRvDoLWJM8dcYmagpsT-12" value="" style="endArrow=none;dashed=1;html=1;dashPattern=1 3;strokeWidth=2;entryX=0;entryY=0;entryDx=0;entryDy=55;entryPerimeter=0;" edge="1" parent="1" target="nIRvDoLWJM8dcYmagpsT-4">
          <mxGeometry width="50" height="50" relative="1" as="geometry">
            <mxPoint x="350" y="365" as="sourcePoint" />
            <mxPoint x="400" y="315" as="targetPoint" />
          </mxGeometry>
        </mxCell>
        <mxCell id="nIRvDoLWJM8dcYmagpsT-13" value="" style="endArrow=none;dashed=1;html=1;dashPattern=1 3;strokeWidth=2;exitX=0;exitY=0;exitDx=150;exitDy=55;exitPerimeter=0;entryX=0.327;entryY=-0.025;entryDx=0;entryDy=0;entryPerimeter=0;" edge="1" parent="1" source="nIRvDoLWJM8dcYmagpsT-4" target="nIRvDoLWJM8dcYmagpsT-5">
          <mxGeometry width="50" height="50" relative="1" as="geometry">
            <mxPoint x="660" y="390" as="sourcePoint" />
            <mxPoint x="710" y="440" as="targetPoint" />
          </mxGeometry>
        </mxCell>
        <mxCell id="nIRvDoLWJM8dcYmagpsT-14" value="temprature converter package diagram" style="text;html=1;strokeColor=none;fillColor=none;align=center;verticalAlign=middle;whiteSpace=wrap;rounded=0;" vertex="1" parent="1">
          <mxGeometry x="330" y="30" width="210" height="30" as="geometry" />
        </mxCell>
      </root>
    </mxGraphModel>
  </diagram>
</mxfile>
